# File created by Blade
# Date/Time:  Tue Jan 27 18:09:10 2015
# Frame Rate: 120.000 fps
#------------------------------------------------------
:FULLY-SPECIFIED
:DEGREES
2182
root -1.400893 31.860075 -6.695322 7.169138 11.855199 3.531757
Spine -6.797302 -9.236075 -4.229489
Head -5.155525 -43.458022 6.539886
LeftShoulder -12.957062 16.102046 3.723546
LeftArm 27.437086 43.574486 -65.569351
LeftForeArm -3.708171 -0.000000 15.607218
LeftHand -10.862887 -0.000000 -5.423505
LeftHandThumb1 -26.253704 0.000000 33.147579
RightShoulder -6.357355 11.953122 -29.253099
RightArm 1.938433 51.299242 29.817767
RightForeArm 17.347441 -0.000000 106.058766
RightHand -6.087436 -0.000000 5.990078
RightHandThumb1 -24.326973 -0.000000 -32.862282
LeftUpLeg -3.592384 -3.600307 -0.825535
LeftLeg 1.150348 -0.000000 -0.000000
LeftFoot -16.581573 14.973337 -24.181369
LeftToeBase 8.601743 -0.000000 -0.000000
RightUpLeg 0.593890 -7.844040 -3.423959
RightLeg -3.410070 -0.000000 0.000000
RightFoot -15.622068 -15.103973 10.201831
RightToeBase 5.173529 -0.000000 -0.000000
2183
root -1.402359 31.858040 -6.693506 7.055600 11.563696 3.479406
Spine -6.727231 -9.203529 -4.238997
Head -5.078830 -44.105917 6.614412
LeftShoulder -12.953410 16.095351 3.759710
LeftArm 27.532066 43.690073 -65.426663
LeftForeArm -3.627518 -0.000000 15.619926
LeftHand -10.763532 -0.000000 -5.561144
LeftHandThumb1 -26.253704 0.000000 33.147579
RightShoulder -6.290406 12.038695 -29.228078
RightArm 1.990815 51.476125 30.138408
RightForeArm 17.423912 -0.000000 106.038286
RightHand -6.264549 -0.000000 5.801959
RightHandThumb1 -24.326973 -0.000000 -32.862282
LeftUpLeg -3.474891 -3.479681 -0.805316
LeftLeg 1.199905 -0.000000 -0.000000
LeftFoot -16.735375 15.069993 -24.237512
LeftToeBase 8.644601 -0.000000 -0.000000
RightUpLeg 0.643067 -7.710696 -3.411947
RightLeg -3.399270 -0.000000 0.000000
RightFoot -15.586573 -14.947781 10.173380
RightToeBase 5.161500 -0.000000 -0.000000
2184
root -1.403115 31.857037 -6.693601 6.964497 11.271948 3.434832
Spine -6.691590 -9.191107 -4.247665
Head -4.915087 -44.703385 6.575964
LeftShoulder -12.990364 16.071882 3.788442
LeftArm 27.675426 43.867387 -65.238846
LeftForeArm -3.531672 -0.000000 15.602716
LeftHand -10.853767 -0.000000 -5.553659
LeftHandThumb1 -26.253704 0.000000 33.147579
RightShoulder -6.202729 12.103470 -29.196758
RightArm 2.138360 51.702794 30.547644
RightForeArm 17.280890 -0.000000 105.966660
RightHand -6.111363 -0.000000 5.821004
RightHandThumb1 -24.326973 -0.000000 -32.862282
LeftUpLeg -3.381663 -3.363897 -0.795734
LeftLeg 1.242026 -0.000000 -0.000000
LeftFoot -16.875686 15.204395 -24.293038
LeftToeBase 8.688541 -0.000000 -0.000000
RightUpLeg 0.658435 -7.609206 -3.404158
RightLeg -3.368148 -0.000000 0.000000
RightFoot -15.545958 -14.772384 10.122258
RightToeBase 5.190463 -0.000000 -0.000000
2185
root -1.404113 31.855597 -6.691986 6.854776 10.966208 3.382040
Spine -6.625485 -9.122332 -4.250480
Head -4.790428 -45.252568 6.572113
LeftShoulder -12.988982 16.033862 3.817118
LeftArm 27.821077 44.025352 -65.044654
LeftForeArm -3.445994 -0.000000 15.617935
LeftHand -10.882458 -0.000000 -5.490368
LeftHandThumb1 -26.253704 0.000000 33.147579
RightShoulder -6.172102 12.139211 -29.170358
RightArm 2.368027 51.910080 30.984209
RightForeArm 17.287779 -0.000000 105.871795
RightHand -6.095650 0.000000 5.639634
RightHandThumb1 -24.326973 -0.000000 -32.862282
LeftUpLeg -3.268650 -3.270779 -0.777109
LeftLeg 1.288222 -0.000000 -0.000000
LeftFoot -17.043995 15.372577 -24.330708
LeftToeBase 8.699195 -0.000000 -0.000000
RightUpLeg 0.694551 -7.493259 -3.392048
RightLeg -3.343983 -0.000000 0.000000
RightFoot -15.496148 -14.584588 10.076642
RightToeBase 5.193754 -0.000000 -0.000000
2186
root -1.403006 31.854010 -6.691896 6.743724 10.662807 3.350295
Spine -6.565470 -9.065953 -4.269948
Head -4.615851 -45.828731 6.487677
LeftShoulder -13.035531 16.175624 3.794441
LeftArm 28.243471 44.134191 -64.647388
LeftForeArm -3.197600 -0.000000 15.614154
LeftHand -10.952202 -0.000000 -6.099171
LeftHandThumb1 -26.253704 0.000000 33.147579
RightShoulder -6.124324 12.157091 -29.165183
RightArm 2.655967 52.123213 31.494332
RightForeArm 17.263210 -0.000000 105.754623
RightHand -6.127525 0.000000 5.624979
RightHandThumb1 -24.326973 -0.000000 -32.862282
LeftUpLeg -3.161267 -3.169736 -0.783771
LeftLeg 1.353915 -0.000000 -0.000000
LeftFoot -17.204904 15.519123 -24.396002
LeftToeBase 8.699535 -0.000000 -0.000000
RightUpLeg 0.726281 -7.411387 -3.403346
RightLeg -3.298017 -0.000000 0.000000
RightFoot -15.467683 -14.368870 10.021265
RightToeBase 5.127943 -0.000000 -0.000000
2187
root -1.404749 31.853562 -6.693475 6.646471 10.348206 3.298240
Spine -6.523081 -8.993376 -4.277229
Head -4.415407 -46.295806 6.412233
LeftShoulder -13.039053 16.161915 3.817181
LeftArm 28.419449 44.240721 -64.439954
LeftForeArm -3.085765 -0.000000 15.626249
LeftHand -10.918017 -0.000000 -5.575285
LeftHandThumb1 -26.253704 0.000000 33.147579
RightShoulder -6.037283 12.214470 -29.126274
RightArm 2.848961 52.302634 31.869922
RightForeArm 17.222286 -0.000000 105.611795
RightHand -6.159559 -0.000000 5.622977
RightHandThumb1 -24.326973 -0.000000 -32.862282
LeftUpLeg -3.072141 -3.035082 -0.765168
LeftLeg 1.414168 -0.000000 -0.000000
LeftFoot -17.356786 15.632589 -24.478919
LeftToeBase 8.704675 -0.000000 -0.000000
RightUpLeg 0.729031 -7.298766 -3.390187
RightLeg -3.243515 -0.000000 0.000000
RightFoot -15.429265 -14.160534 9.977552
RightToeBase 5.172193 -0.000000 -0.000000
2188
root -1.406408 31.852586 -6.691727 6.546212 10.020991 3.251418
Spine -6.481433 -8.894509 -4.290424
Head -4.252038 -46.830220 6.361484
LeftShoulder -13.037800 16.117596 3.856576
LeftArm 28.500942 44.322751 -64.309656
LeftForeArm -2.850399 0.000000 15.672202
LeftHand -10.937608 -0.000000 -5.469333
LeftHandThumb1 -26.253704 0.000000 33.147579
RightShoulder -5.989991 12.332369 -29.110290
RightArm 3.030590 52.387974 32.218569
RightForeArm 17.267504 -0.000000 105.432606
RightHand -6.117341 -0.000000 5.694137
RightHandThumb1 -24.326973 -0.000000 -32.862282
LeftUpLeg -2.961648 -2.909750 -0.754027
LeftLeg 1.455388 -0.000000 -0.000000
LeftFoot -17.510546 15.797492 -24.527732
LeftToeBase 8.710095 -0.000000 -0.000000
RightUpLeg 0.750816 -7.148007 -3.383429
RightLeg -3.210140 -0.000000 0.000000
RightFoot -15.378833 -13.988244 9.908448
RightToeBase 5.102508 -0.000000 -0.000000
2189
root -1.404906 31.851206 -6.691481 6.458228 9.720291 3.231788
Spine -6.445041 -8.812962 -4.317797
Head -4.086312 -47.204774 6.263306
LeftShoulder -13.019723 16.112663 3.895165
LeftArm 28.651595 44.397473 -64.136048
LeftForeArm -2.646772 -0.000000 15.698046
LeftHand -10.850090 0.000000 -5.470805
LeftHandThumb1 -26.253704 0.000000 33.147579
RightShoulder -5.944246 12.389325 -29.104234
RightArm 3.256696 52.495776 32.586126
RightForeArm 17.358622 -0.000000 105.246981
RightHand -6.220060 -0.000000 5.606925
RightHandThumb1 -24.326973 -0.000000 -32.862282
LeftUpLeg -2.868332 -2.817072 -0.771972
LeftLeg 1.506119 -0.000000 -0.000000
LeftFoot -17.656859 15.960082 -24.569044
LeftToeBase 8.694820 -0.000000 -0.000000
RightUpLeg 0.773539 -6.994247 -3.404973
RightLeg -3.186642 -0.000000 0.000000
RightFoot -15.360898 -13.828255 9.894579
RightToeBase 5.136305 -0.000000 -0.000000
2190
root -1.407124 31.850554 -6.690219 6.382733 9.430204 3.171431
Spine -6.439459 -8.713298 -4.306539
Head -3.895675 -47.603501 6.160579
LeftShoulder -13.028888 16.161710 3.916356
LeftArm 28.913739 44.445676 -63.916847
LeftForeArm -2.446777 -0.000000 15.689795
LeftHand -10.948075 -0.000000 -5.425746
LeftHandThumb1 -26.253704 0.000000 33.147579
RightShoulder -5.913520 12.444921 -29.105615
RightArm 3.430958 52.565628 32.912432
RightForeArm 17.412975 -0.000000 105.030584
RightHand -6.098969 -0.000000 5.505561
RightHandThumb1 -24.326973 -0.000000 -32.862282
LeftUpLeg -2.796830 -2.697768 -0.742504
LeftLeg 1.562831 -0.000000 -0.000000
LeftFoot -17.811486 16.096054 -24.623888
LeftToeBase 8.702531 -0.000000 -0.000000
RightUpLeg 0.844718 -6.613094 -3.389785
RightLeg -3.297642 -0.000000 0.000000
RightFoot -15.271036 -13.843024 9.964411
RightToeBase 5.100199 -0.000000 -0.000000
2191
root -1.409557 31.850152 -6.689673 6.304265 9.153522 3.120510
Spine -6.416677 -8.637493 -4.307090
Head -3.733053 -47.949380 6.100778
LeftShoulder -13.041613 16.120074 3.952130
LeftArm 29.017426 44.490038 -63.778251
LeftForeArm -2.243709 -0.000000 15.736724
LeftHand -10.922694 -0.000000 -5.503853
LeftHandThumb1 -26.253704 0.000000 33.147579
RightShoulder -5.882537 12.460471 -29.083731
RightArm 3.701476 52.679467 33.281311
RightForeArm 17.352613 -0.000000 104.801950
RightHand -6.132911 0.000000 5.605997
RightHandThumb1 -24.326973 -0.000000 -32.862282
LeftUpLeg -2.725952 -2.593164 -0.716554
LeftLeg 1.626130 -0.000000 -0.000000
LeftFoot -17.961418 16.216124 -24.677552
LeftToeBase 8.764053 -0.000000 -0.000000
RightUpLeg 0.882017 -6.362920 -3.375575
RightLeg -3.329226 -0.000000 0.000000
RightFoot -15.208029 -13.782932 9.981895
RightToeBase 5.193348 -0.000000 -0.000000
2192
root -1.409111 31.850080 -6.690675 6.243662 8.911365 3.085641
Spine -6.418422 -8.585455 -4.299040
Head -3.582246 -48.223587 6.057678
LeftShoulder -13.032670 16.124423 3.963262
LeftArm 29.196272 44.553024 -63.590471
LeftForeArm -2.278789 -0.000000 15.751674
LeftHand -10.915691 -0.000000 -5.255839
LeftHandThumb1 -26.253704 0.000000 33.147579
RightShoulder -5.819424 12.498680 -29.089201
RightArm 3.834583 52.750771 33.527868
RightForeArm 17.418813 -0.000000 104.590434
RightHand -6.206744 0.000000 5.543465
RightHandThumb1 -24.326973 -0.000000 -32.862282
LeftUpLeg -2.678272 -2.518782 -0.712012
LeftLeg 1.694487 -0.000000 -0.000000
LeftFoot -18.093028 16.355718 -24.711811
LeftToeBase 8.729141 -0.000000 -0.000000
RightUpLeg 0.876696 -6.241567 -3.371453
RightLeg -3.292335 -0.000000 0.000000
RightFoot -15.176486 -13.650980 9.957635
RightToeBase 5.136246 -0.000000 -0.000000
2193
root -1.409077 31.850011 -6.689547 6.180936 8.686699 3.059711
Spine -6.414877 -8.531421 -4.311952
Head -3.456294 -48.478680 6.018468
LeftShoulder -13.029335 16.110526 3.984212
LeftArm 29.292626 44.528847 -63.485558
LeftForeArm -2.207427 0.000000 15.789637
LeftHand -10.962440 -0.000000 -5.405583
LeftHandThumb1 -26.253704 0.000000 33.147579
RightShoulder -5.768929 12.522545 -29.093956
RightArm 3.909422 52.826771 33.715396
RightForeArm 17.432731 0.000000 104.353872
RightHand -6.239020 -0.000000 5.514159
RightHandThumb1 -24.326973 -0.000000 -32.862282
LeftUpLeg -2.610221 -2.448781 -0.711100
LeftLeg 1.732055 -0.000000 -0.000000
LeftFoot -18.192557 16.485573 -24.740900
LeftToeBase 8.723861 -0.000000 -0.000000
RightUpLeg 0.888068 -6.154388 -3.373127
RightLeg -3.271915 -0.000000 0.000000
RightFoot -15.138017 -13.500855 9.908281
RightToeBase 5.053936 -0.000000 -0.000000
